<svg width="155" height="34" viewBox="0 0 155 34" fill="none" xmlns="http://www.w3.org/2000/svg">
<path d="M84.3245 24.3088C84.3245 23.8517 84.2542 23.4416 84.1136 23.0783C83.9847 22.715 83.7444 22.381 83.3929 22.0764C83.0413 21.7599 82.5374 21.4494 81.8811 21.1447C81.2366 20.84 80.3987 20.5236 79.3675 20.1955C78.1956 19.8205 77.0882 19.3986 76.0452 18.9299C75.014 18.4611 74.0999 17.9162 73.303 17.2951C72.5179 16.6623 71.8968 15.9299 71.4397 15.0978C70.9944 14.2541 70.7718 13.2814 70.7718 12.1799C70.7718 11.1135 71.0003 10.1467 71.4573 9.27948C71.9261 8.40057 72.5882 7.65057 73.4436 7.02948C74.2991 6.39667 75.3011 5.91034 76.4495 5.5705C77.6097 5.23065 78.887 5.06073 80.2815 5.06073C82.1683 5.06073 83.8147 5.40057 85.221 6.08026C86.6272 6.74823 87.7229 7.67401 88.5081 8.8576C89.2933 10.0412 89.6858 11.4064 89.6858 12.9533H84.3421C84.3421 12.215 84.1897 11.5646 83.885 11.0021C83.5804 10.4279 83.1175 9.9826 82.4964 9.6662C81.887 9.33807 81.1136 9.17401 80.1761 9.17401C79.2737 9.17401 78.5179 9.30878 77.9085 9.57831C77.3108 9.84784 76.8597 10.217 76.555 10.6857C76.262 11.1428 76.1155 11.6525 76.1155 12.215C76.1155 12.6486 76.2268 13.0412 76.4495 13.3928C76.6722 13.7326 76.9944 14.0549 77.4163 14.3596C77.8499 14.6525 78.3772 14.9338 78.9983 15.2033C79.6311 15.4728 80.3577 15.7307 81.178 15.9767C82.5725 16.4103 83.7972 16.8908 84.8518 17.4182C85.9065 17.9338 86.7913 18.5256 87.5061 19.1935C88.2327 19.8498 88.7776 20.5998 89.1409 21.4435C89.5159 22.2756 89.7034 23.2189 89.7034 24.2736C89.7034 25.3869 89.4808 26.383 89.0354 27.2619C88.6018 28.1408 87.9749 28.8849 87.1546 29.4943C86.3343 30.1037 85.3499 30.5666 84.2015 30.883C83.0647 31.1994 81.7991 31.3576 80.4046 31.3576C79.1272 31.3576 77.8675 31.1935 76.6253 30.8654C75.3948 30.5256 74.2757 30.0158 73.2679 29.3361C72.2718 28.6447 71.4749 27.7717 70.8772 26.717C70.2796 25.6623 69.9808 24.4142 69.9808 22.9728H75.3597C75.3597 23.758 75.4768 24.426 75.7112 24.9767C75.9456 25.5158 76.2854 25.9553 76.7308 26.2951C77.1878 26.6349 77.721 26.881 78.3304 27.0334C78.9515 27.1857 79.6429 27.2619 80.4046 27.2619C81.2952 27.2619 82.0276 27.133 82.6018 26.8752C83.1878 26.6174 83.6214 26.2658 83.9026 25.8205C84.1839 25.3752 84.3245 24.8713 84.3245 24.3088ZM97.9475 4.00604V31.006H92.7972V4.00604H97.9475ZM97.2268 20.8283H95.8558C95.8558 19.5041 96.0257 18.2853 96.3655 17.1721C96.7054 16.0471 97.1917 15.0744 97.8245 14.2541C98.4573 13.4221 99.2132 12.7775 100.092 12.3205C100.971 11.8635 101.95 11.6349 103.028 11.6349C103.965 11.6349 104.815 11.7697 105.576 12.0392C106.35 12.2971 107.018 12.7189 107.58 13.3049C108.143 13.8908 108.571 14.6525 108.864 15.59C109.168 16.5158 109.321 17.6525 109.321 19.0002V31.006H104.153V18.965C104.153 18.133 104.03 17.4767 103.783 16.9963C103.549 16.5158 103.209 16.176 102.764 15.9767C102.319 15.7775 101.774 15.6779 101.129 15.6779C100.403 15.6779 99.7874 15.8127 99.2835 16.0822C98.7796 16.34 98.3753 16.7033 98.0706 17.1721C97.7776 17.6408 97.5608 18.1857 97.4202 18.8068C97.2913 19.4279 97.2268 20.1017 97.2268 20.8283ZM112.291 21.6896V21.3205C112.291 19.926 112.491 18.6428 112.889 17.4709C113.287 16.2873 113.867 15.2619 114.629 14.3947C115.403 13.5275 116.346 12.8537 117.459 12.3732C118.584 11.881 119.867 11.6349 121.309 11.6349C122.762 11.6349 124.045 11.881 125.158 12.3732C126.283 12.8537 127.227 13.5275 127.989 14.3947C128.762 15.2619 129.348 16.2873 129.746 17.4709C130.145 18.6428 130.344 19.926 130.344 21.3205V21.6896C130.344 23.0724 130.145 24.3557 129.746 25.5392C129.348 26.7111 128.762 27.7365 127.989 28.6154C127.227 29.4826 126.289 30.1564 125.176 30.6369C124.063 31.1174 122.785 31.3576 121.344 31.3576C119.891 31.3576 118.602 31.1174 117.477 30.6369C116.352 30.1564 115.403 29.4826 114.629 28.6154C113.867 27.7365 113.287 26.7111 112.889 25.5392C112.491 24.3557 112.291 23.0724 112.291 21.6896ZM117.442 21.3205V21.6896C117.442 22.4748 117.512 23.2131 117.653 23.9045C117.793 24.5842 118.016 25.1818 118.321 25.6974C118.625 26.2131 119.024 26.6174 119.516 26.9103C120.02 27.1916 120.629 27.3322 121.344 27.3322C122.035 27.3322 122.627 27.1916 123.119 26.9103C123.612 26.6174 124.01 26.2131 124.315 25.6974C124.619 25.1818 124.842 24.5842 124.983 23.9045C125.123 23.2131 125.194 22.4748 125.194 21.6896V21.3205C125.194 20.5588 125.123 19.8381 124.983 19.1584C124.842 18.4787 124.619 17.8752 124.315 17.3478C124.01 16.8205 123.606 16.4103 123.102 16.1174C122.61 15.8127 122.012 15.6603 121.309 15.6603C120.606 15.6603 120.008 15.8127 119.516 16.1174C119.024 16.4103 118.625 16.8205 118.321 17.3478C118.016 17.8752 117.793 18.4787 117.653 19.1584C117.512 19.8381 117.442 20.5588 117.442 21.3205ZM143.721 21.9357H137.217V17.7521H143.721C144.717 17.7521 145.526 17.5881 146.147 17.2599C146.768 16.9201 147.225 16.4572 147.518 15.8713C147.811 15.2853 147.957 14.6174 147.957 13.8674C147.957 13.1174 147.811 12.4201 147.518 11.7756C147.225 11.1193 146.768 10.592 146.147 10.1935C145.526 9.7951 144.717 9.59589 143.721 9.59589H139.098V31.006H133.737V5.41229H143.721C145.737 5.41229 147.465 5.77557 148.907 6.50214C150.348 7.2287 151.45 8.23065 152.211 9.508C152.985 10.7736 153.371 12.215 153.371 13.8322C153.371 15.4846 152.985 16.9201 152.211 18.1389C151.45 19.3459 150.348 20.2834 148.907 20.9514C147.465 21.6076 145.737 21.9357 143.721 21.9357Z" fill="#053379"/>
<path d="M12.6914 10.0576L5.73047 31.2744H0.123047L9.63281 5.68066H13.2012L12.6914 10.0576ZM18.4746 31.2744L11.4961 10.0576L10.9336 5.68066H14.5371L24.0996 31.2744H18.4746ZM18.1582 21.7471V25.8779H4.64062V21.7471H18.1582ZM37.1953 26.7217V12.2549H42.2578V31.2744H37.4941L37.1953 26.7217ZM37.7578 22.8193L39.252 22.7842C39.252 24.0498 39.1055 25.2275 38.8125 26.3174C38.5195 27.3955 38.0801 28.333 37.4941 29.1299C36.9082 29.915 36.1699 30.5303 35.2793 30.9756C34.3887 31.4092 33.3398 31.626 32.1328 31.626C31.207 31.626 30.3516 31.4971 29.5664 31.2393C28.793 30.9697 28.125 30.5537 27.5625 29.9912C27.0117 29.417 26.5781 28.6846 26.2617 27.7939C25.957 26.8916 25.8047 25.8076 25.8047 24.542V12.2549H30.8672V24.5771C30.8672 25.1396 30.9316 25.6143 31.0605 26.001C31.2012 26.3877 31.3945 26.7041 31.6406 26.9502C31.8867 27.1963 32.1738 27.3721 32.502 27.4775C32.8418 27.583 33.2168 27.6357 33.627 27.6357C34.6699 27.6357 35.4902 27.4248 36.0879 27.0029C36.6973 26.5811 37.125 26.0068 37.3711 25.2803C37.6289 24.542 37.7578 23.7217 37.7578 22.8193ZM55.4414 12.2549V15.8408H44.3672V12.2549H55.4414ZM47.1094 7.56152H52.1719V25.5439C52.1719 26.0947 52.2422 26.5166 52.3828 26.8096C52.5352 27.1025 52.7578 27.3076 53.0508 27.4248C53.3438 27.5303 53.7129 27.583 54.1582 27.583C54.4746 27.583 54.7559 27.5713 55.002 27.5479C55.2598 27.5127 55.4766 27.4775 55.6523 27.4424L55.6699 31.1689C55.2363 31.3096 54.7676 31.4209 54.2637 31.5029C53.7598 31.585 53.2031 31.626 52.5938 31.626C51.4805 31.626 50.5078 31.4443 49.6758 31.0811C48.8555 30.7061 48.2227 30.1084 47.7773 29.2881C47.332 28.4678 47.1094 27.3896 47.1094 26.0537V7.56152ZM57.0586 21.958V21.5889C57.0586 20.1943 57.2578 18.9111 57.6562 17.7393C58.0547 16.5557 58.6348 15.5303 59.3965 14.6631C60.1582 13.7959 61.0957 13.1221 62.209 12.6416C63.3223 12.1494 64.5996 11.9033 66.041 11.9033C67.4824 11.9033 68.7656 12.1494 69.8906 12.6416C71.0156 13.1221 71.959 13.7959 72.7207 14.6631C73.4941 15.5303 74.0801 16.5557 74.4785 17.7393C74.877 18.9111 75.0762 20.1943 75.0762 21.5889V21.958C75.0762 23.3408 74.877 24.624 74.4785 25.8076C74.0801 26.9795 73.4941 28.0049 72.7207 28.8838C71.959 29.751 71.0215 30.4248 69.9082 30.9053C68.7949 31.3857 67.5176 31.626 66.0762 31.626C64.6348 31.626 63.3516 31.3857 62.2266 30.9053C61.1133 30.4248 60.1699 29.751 59.3965 28.8838C58.6348 28.0049 58.0547 26.9795 57.6562 25.8076C57.2578 24.624 57.0586 23.3408 57.0586 21.958ZM62.1211 21.5889V21.958C62.1211 22.7549 62.1914 23.499 62.332 24.1904C62.4727 24.8818 62.6953 25.4912 63 26.0186C63.3164 26.5342 63.7266 26.9385 64.2305 27.2314C64.7344 27.5244 65.3496 27.6709 66.0762 27.6709C66.7793 27.6709 67.3828 27.5244 67.8867 27.2314C68.3906 26.9385 68.7949 26.5342 69.0996 26.0186C69.4043 25.4912 69.627 24.8818 69.7676 24.1904C69.9199 23.499 69.9961 22.7549 69.9961 21.958V21.5889C69.9961 20.8154 69.9199 20.0889 69.7676 19.4092C69.627 18.7178 69.3984 18.1084 69.082 17.5811C68.7773 17.042 68.373 16.6201 67.8691 16.3154C67.3652 16.0107 66.7559 15.8584 66.041 15.8584C65.3262 15.8584 64.7168 16.0107 64.2129 16.3154C63.7207 16.6201 63.3164 17.042 63 17.5811C62.6953 18.1084 62.4727 18.7178 62.332 19.4092C62.1914 20.0889 62.1211 20.8154 62.1211 21.5889Z" fill="#EB2323"/>
<path d="M12.6914 10.0576L5.73047 31.2744H0.123047L9.63281 5.68066H13.2012L12.6914 10.0576ZM18.4746 31.2744L11.4961 10.0576L10.9336 5.68066H14.5371L24.0996 31.2744H18.4746ZM18.1582 21.7471V25.8779H4.64062V21.7471H18.1582ZM37.1953 26.7217V12.2549H42.2578V31.2744H37.4941L37.1953 26.7217ZM37.7578 22.8193L39.252 22.7842C39.252 24.0498 39.1055 25.2275 38.8125 26.3174C38.5195 27.3955 38.0801 28.333 37.4941 29.1299C36.9082 29.915 36.1699 30.5303 35.2793 30.9756C34.3887 31.4092 33.3398 31.626 32.1328 31.626C31.207 31.626 30.3516 31.4971 29.5664 31.2393C28.793 30.9697 28.125 30.5537 27.5625 29.9912C27.0117 29.417 26.5781 28.6846 26.2617 27.7939C25.957 26.8916 25.8047 25.8076 25.8047 24.542V12.2549H30.8672V24.5771C30.8672 25.1396 30.9316 25.6143 31.0605 26.001C31.2012 26.3877 31.3945 26.7041 31.6406 26.9502C31.8867 27.1963 32.1738 27.3721 32.502 27.4775C32.8418 27.583 33.2168 27.6357 33.627 27.6357C34.6699 27.6357 35.4902 27.4248 36.0879 27.0029C36.6973 26.5811 37.125 26.0068 37.3711 25.2803C37.6289 24.542 37.7578 23.7217 37.7578 22.8193ZM55.4414 12.2549V15.8408H44.3672V12.2549H55.4414ZM47.1094 7.56152H52.1719V25.5439C52.1719 26.0947 52.2422 26.5166 52.3828 26.8096C52.5352 27.1025 52.7578 27.3076 53.0508 27.4248C53.3438 27.5303 53.7129 27.583 54.1582 27.583C54.4746 27.583 54.7559 27.5713 55.002 27.5479C55.2598 27.5127 55.4766 27.4775 55.6523 27.4424L55.6699 31.1689C55.2363 31.3096 54.7676 31.4209 54.2637 31.5029C53.7598 31.585 53.2031 31.626 52.5938 31.626C51.4805 31.626 50.5078 31.4443 49.6758 31.0811C48.8555 30.7061 48.2227 30.1084 47.7773 29.2881C47.332 28.4678 47.1094 27.3896 47.1094 26.0537V7.56152ZM57.0586 21.958V21.5889C57.0586 20.1943 57.2578 18.9111 57.6562 17.7393C58.0547 16.5557 58.6348 15.5303 59.3965 14.6631C60.1582 13.7959 61.0957 13.1221 62.209 12.6416C63.3223 12.1494 64.5996 11.9033 66.041 11.9033C67.4824 11.9033 68.7656 12.1494 69.8906 12.6416C71.0156 13.1221 71.959 13.7959 72.7207 14.6631C73.4941 15.5303 74.0801 16.5557 74.4785 17.7393C74.877 18.9111 75.0762 20.1943 75.0762 21.5889V21.958C75.0762 23.3408 74.877 24.624 74.4785 25.8076C74.0801 26.9795 73.4941 28.0049 72.7207 28.8838C71.959 29.751 71.0215 30.4248 69.9082 30.9053C68.7949 31.3857 67.5176 31.626 66.0762 31.626C64.6348 31.626 63.3516 31.3857 62.2266 30.9053C61.1133 30.4248 60.1699 29.751 59.3965 28.8838C58.6348 28.0049 58.0547 26.9795 57.6562 25.8076C57.2578 24.624 57.0586 23.3408 57.0586 21.958ZM62.1211 21.5889V21.958C62.1211 22.7549 62.1914 23.499 62.332 24.1904C62.4727 24.8818 62.6953 25.4912 63 26.0186C63.3164 26.5342 63.7266 26.9385 64.2305 27.2314C64.7344 27.5244 65.3496 27.6709 66.0762 27.6709C66.7793 27.6709 67.3828 27.5244 67.8867 27.2314C68.3906 26.9385 68.7949 26.5342 69.0996 26.0186C69.4043 25.4912 69.627 24.8818 69.7676 24.1904C69.9199 23.499 69.9961 22.7549 69.9961 21.958V21.5889C69.9961 20.8154 69.9199 20.0889 69.7676 19.4092C69.627 18.7178 69.3984 18.1084 69.082 17.5811C68.7773 17.042 68.373 16.6201 67.8691 16.3154C67.3652 16.0107 66.7559 15.8584 66.041 15.8584C65.3262 15.8584 64.7168 16.0107 64.2129 16.3154C63.7207 16.6201 63.3164 17.042 63 17.5811C62.6953 18.1084 62.4727 18.7178 62.332 19.4092C62.1914 20.0889 62.1211 20.8154 62.1211 21.5889Z" fill="black" fill-opacity="0.2"/>
<path d="M12.6914 10.0576L5.73047 31.2744H0.123047L9.63281 5.68066H13.2012L12.6914 10.0576ZM18.4746 31.2744L11.4961 10.0576L10.9336 5.68066H14.5371L24.0996 31.2744H18.4746ZM18.1582 21.7471V25.8779H4.64062V21.7471H18.1582ZM37.1953 26.7217V12.2549H42.2578V31.2744H37.4941L37.1953 26.7217ZM37.7578 22.8193L39.252 22.7842C39.252 24.0498 39.1055 25.2275 38.8125 26.3174C38.5195 27.3955 38.0801 28.333 37.4941 29.1299C36.9082 29.915 36.1699 30.5303 35.2793 30.9756C34.3887 31.4092 33.3398 31.626 32.1328 31.626C31.207 31.626 30.3516 31.4971 29.5664 31.2393C28.793 30.9697 28.125 30.5537 27.5625 29.9912C27.0117 29.417 26.5781 28.6846 26.2617 27.7939C25.957 26.8916 25.8047 25.8076 25.8047 24.542V12.2549H30.8672V24.5771C30.8672 25.1396 30.9316 25.6143 31.0605 26.001C31.2012 26.3877 31.3945 26.7041 31.6406 26.9502C31.8867 27.1963 32.1738 27.3721 32.502 27.4775C32.8418 27.583 33.2168 27.6357 33.627 27.6357C34.6699 27.6357 35.4902 27.4248 36.0879 27.0029C36.6973 26.5811 37.125 26.0068 37.3711 25.2803C37.6289 24.542 37.7578 23.7217 37.7578 22.8193ZM55.4414 12.2549V15.8408H44.3672V12.2549H55.4414ZM47.1094 7.56152H52.1719V25.5439C52.1719 26.0947 52.2422 26.5166 52.3828 26.8096C52.5352 27.1025 52.7578 27.3076 53.0508 27.4248C53.3438 27.5303 53.7129 27.583 54.1582 27.583C54.4746 27.583 54.7559 27.5713 55.002 27.5479C55.2598 27.5127 55.4766 27.4775 55.6523 27.4424L55.6699 31.1689C55.2363 31.3096 54.7676 31.4209 54.2637 31.5029C53.7598 31.585 53.2031 31.626 52.5938 31.626C51.4805 31.626 50.5078 31.4443 49.6758 31.0811C48.8555 30.7061 48.2227 30.1084 47.7773 29.2881C47.332 28.4678 47.1094 27.3896 47.1094 26.0537V7.56152ZM57.0586 21.958V21.5889C57.0586 20.1943 57.2578 18.9111 57.6562 17.7393C58.0547 16.5557 58.6348 15.5303 59.3965 14.6631C60.1582 13.7959 61.0957 13.1221 62.209 12.6416C63.3223 12.1494 64.5996 11.9033 66.041 11.9033C67.4824 11.9033 68.7656 12.1494 69.8906 12.6416C71.0156 13.1221 71.959 13.7959 72.7207 14.6631C73.4941 15.5303 74.0801 16.5557 74.4785 17.7393C74.877 18.9111 75.0762 20.1943 75.0762 21.5889V21.958C75.0762 23.3408 74.877 24.624 74.4785 25.8076C74.0801 26.9795 73.4941 28.0049 72.7207 28.8838C71.959 29.751 71.0215 30.4248 69.9082 30.9053C68.7949 31.3857 67.5176 31.626 66.0762 31.626C64.6348 31.626 63.3516 31.3857 62.2266 30.9053C61.1133 30.4248 60.1699 29.751 59.3965 28.8838C58.6348 28.0049 58.0547 26.9795 57.6562 25.8076C57.2578 24.624 57.0586 23.3408 57.0586 21.958ZM62.1211 21.5889V21.958C62.1211 22.7549 62.1914 23.499 62.332 24.1904C62.4727 24.8818 62.6953 25.4912 63 26.0186C63.3164 26.5342 63.7266 26.9385 64.2305 27.2314C64.7344 27.5244 65.3496 27.6709 66.0762 27.6709C66.7793 27.6709 67.3828 27.5244 67.8867 27.2314C68.3906 26.9385 68.7949 26.5342 69.0996 26.0186C69.4043 25.4912 69.627 24.8818 69.7676 24.1904C69.9199 23.499 69.9961 22.7549 69.9961 21.958V21.5889C69.9961 20.8154 69.9199 20.0889 69.7676 19.4092C69.627 18.7178 69.3984 18.1084 69.082 17.5811C68.7773 17.042 68.373 16.6201 67.8691 16.3154C67.3652 16.0107 66.7559 15.8584 66.041 15.8584C65.3262 15.8584 64.7168 16.0107 64.2129 16.3154C63.7207 16.6201 63.3164 17.042 63 17.5811C62.6953 18.1084 62.4727 18.7178 62.332 19.4092C62.1914 20.0889 62.1211 20.8154 62.1211 21.5889Z" fill="black" fill-opacity="0.2"/>
</svg>
